HIERARCHY
ROOT Hips
{
  OFFSET 13.6774 106.653 -34.4427
  CHANNELS 6 Xposition Yposition Zposition Zrotation Xrotation Yrotation
  JOINT ToSpine
  {
    OFFSET -2.69724 7.43032 -0.144315
    CHANNELS 3 Zrotation Xrotation Yrotation
    JOINT Spine
    {
      OFFSET -0.0310711 10.7595 1.96963
      CHANNELS 3 Zrotation Xrotation Yrotation
      JOINT Spine1
      {
        OFFSET 19.9056 3.91189 0.764692
        CHANNELS 3 Zrotation Xrotation Yrotation
        JOINT Neck
        {
          OFFSET 25.9749 7.03908 -0.130764
          CHANNELS 3 Zrotation Xrotation Yrotation
          JOINT Head
          {
            OFFSET 9.52751 0.295786 -0.907742
            CHANNELS 3 Zrotation Xrotation Yrotation
            End Site
            {
              OFFSET 16.4037 0.713936 2.7358
            }
          }
        }
        JOINT LeftShoulder
        {
          OFFSET 17.7449 4.33886 11.7777
          CHANNELS 3 Zrotation Xrotation Yrotation
          JOINT LeftArm
          {
            OFFSET 0.911315 1.27913 9.80584
            CHANNELS 3 Zrotation Xrotation Yrotation
            JOINT LeftForeArm
            {
              OFFSET 28.6126 1.18197 -3.53199
              CHANNELS 3 Zrotation Xrotation Yrotation
              JOINT LeftHand
              {
                OFFSET 27.5088 0.0218783 0.327423
                CHANNELS 3 Zrotation Xrotation Yrotation
                End Site
                {
                  OFFSET 18.6038 -0.000155887 0.382096
                }
              }
            }
          }
        }
        JOINT RightShoulder
        {
          OFFSET 17.1009 2.89543 -12.2328
          CHANNELS 3 Zrotation Xrotation Yrotation
          JOINT RightArm
          {
            OFFSET 1.4228 0.178766 -10.211
            CHANNELS 3 Zrotation Xrotation Yrotation
            JOINT RightForeArm
            {
              OFFSET 28.733 1.87905 2.64907
              CHANNELS 3 Zrotation Xrotation Yrotation
              JOINT RightHand
              {
                OFFSET 27.4588 0.290562 -0.101845
                CHANNELS 3 Zrotation Xrotation Yrotation
                End Site
                {
                  OFFSET 17.8396 -0.255518 -0.000602873
                }
              }
            }
          }
        }
      }
    }
  }
  JOINT LeftUpLeg
  {
    OFFSET -5.61296 -2.22332 -10.2353
    CHANNELS 3 Zrotation Xrotation Yrotation
    JOINT LeftLeg
    {
      OFFSET 2.56703 -44.7417 -7.93097
      CHANNELS 3 Zrotation Xrotation Yrotation
      JOINT LeftFoot
      {
        OFFSET 3.16933 -46.5642 -3.96578
        CHANNELS 3 Zrotation Xrotation Yrotation
        JOINT LeftToeBase
        {
          OFFSET 0.346054 -6.02161 12.8035
          CHANNELS 3 Zrotation Xrotation Yrotation
          End Site
          {
            OFFSET 0.134235 -1.35082 5.13018
          }
        }
      }
    }
  }
  JOINT RightUpLeg
  {
    OFFSET -5.7928 -1.72406 10.6446
    CHANNELS 3 Zrotation Xrotation Yrotation
    JOINT RightLeg
    {
      OFFSET -2.57161 -44.7178 -7.85259
      CHANNELS 3 Zrotation Xrotation Yrotation
      JOINT RightFoot
      {
        OFFSET -3.10148 -46.5936 -4.03391
        CHANNELS 3 Zrotation Xrotation Yrotation
        JOINT RightToeBase
        {
          OFFSET -0.0828122 -6.13587 12.8035
          CHANNELS 3 Zrotation Xrotation Yrotation
          End Site
          {
            OFFSET -0.131328 -1.35082 5.13018
          }
        }
      }
    }
  }
}
MOTION
Frames: 12
Frame Time: 0.03333333333333333
0.0000 93.1000 0.0000 -65.6374 -37.9564 -175.4630 -70.9982 -0.1623 87.9928 75.9434 74.0963 22.8082 4.0458 26.3912 -1.2864 -138.9628 14.0861 -161.7071 -157.2828 48.9308 -168.4277 1.5769 -9.7806 -19.9135 -134.0662 31.8487 -76.5761 14.0078 -11.5154 -126.0683 0.0326 -0.1183 0.4675 -1.6744 9.2476 28.2136 -54.2946 -30.8290 167.7196 31.4260 -9.0390 75.0543 0.3613 0.2680 0.4392 -67.1671 -3.1321 106.0589 -6.1589 60.0213 -6.1497 -14.6357 20.0608 4.8468 4.9932 -10.5385 -5.2248 -34.7234 -14.4350 49.5884 1.7155 52.1427 -3.8776 -7.4307 -28.7897 0.6987 6.0162 0.6454 -36.4665 
0.0000 93.1000 0.0000 -66.3145 -46.1132 -172.2340 -71.0025 -0.3522 87.9939 80.0525 74.9057 16.5603 3.6583 27.6574 -2.7640 -135.1709 14.8265 -165.4557 -156.3120 50.8901 -168.3348 1.4394 -10.6757 -21.1006 -124.8370 43.4654 -85.6558 17.9195 -12.9868 -122.8260 0.0760 -0.3218 0.2669 -1.5206 9.7152 26.2764 -57.3825 -34.9614 169.0170 30.1586 -8.9135 74.8976 0.4214 0.4936 0.5105 -66.0262 2.5121 109.0098 -5.1505 56.2146 -2.0392 -11.6411 20.6506 3.8274 8.6980 -22.9755 9.9317 -36.7814 -14.7995 46.7444 1.8684 49.8571 -5.9933 -6.7706 -26.8146 0.5652 5.4776 -1.0944 -37.7505 
0.0000 93.1000 0.0000 -65.1562 -56.2975 -166.2696 -71.0022 -0.5348 87.9962 84.6957 75.8920 11.0063 3.7693 29.1740 -4.2804 -129.1922 15.5487 -171.1840 -156.3934 52.5264 -166.4072 0.3692 -11.6568 -21.0395 -105.9659 51.9438 -102.6260 25.1174 -13.7652 -116.2805 0.1746 -0.3287 -0.0871 -1.9922 10.5678 23.6678 -61.8733 -41.4416 168.0931 30.6203 -9.9614 73.8029 0.3862 0.2049 0.2556 -65.3965 7.9985 110.2375 -3.3925 57.2423 10.0161 -4.5586 14.8237 2.5159 6.2632 -15.6598 7.5316 -39.3391 -14.9051 44.8438 0.8381 49.1168 -11.0458 -6.5354 -22.7262 0.4713 4.5084 -3.1068 -33.9057 
0.0000 93.1000 0.0000 -57.8548 -67.3401 -157.2365 -70.9985 0.9579 87.9993 80.2644 75.8243 13.2989 4.7443 29.6141 -4.5047 -121.2089 15.6383 -176.9654 -155.3295 53.4298 -165.4701 -1.6201 -12.2329 -17.8136 -84.0871 54.8332 -121.6378 32.1501 -13.8264 -110.4060 0.6416 1.3715 -1.6407 -2.7380 10.9207 20.5143 -67.1498 -49.4368 161.9730 29.2591 -10.0269 72.8616 -0.8106 -1.9935 -1.8204 -66.9804 11.0963 111.7447 -1.2048 49.2598 13.3876 -1.3945 11.8982 1.7712 6.4128 -12.6722 1.3296 -43.2119 -16.6359 42.8998 0.0329 46.3997 -14.0541 -5.0551 -16.4592 1.3008 1.9497 -7.2865 -23.9015 
0.0000 93.1000 0.0000 -26.2526 -75.7529 -122.2167 -71.0013 -0.2358 88.0039 61.0562 73.3271 28.1571 7.8320 28.2659 -6.3099 -116.3536 14.0687 177.7381 -157.2800 54.0167 -162.3747 0.7167 -12.9885 -13.5563 -67.1632 52.2399 -137.4112 36.2960 -11.3765 -103.9870 0.0391 -0.4879 -0.8661 -1.4600 10.9209 16.1123 -74.2954 -59.8060 154.0591 29.8851 -10.0815 73.3163 0.0961 0.1459 0.2792 -67.1234 13.5132 108.8093 -1.2040 40.0495 8.0048 -0.4666 9.9157 0.5546 6.5900 -13.4386 1.5805 -44.9805 -17.8866 43.2678 -1.0361 44.2181 -17.1285 -6.1978 -11.7055 1.1311 1.5111 -3.5924 -13.0380 
0.0000 93.1000 0.0000 32.7866 -72.6277 -59.0755 -71.0093 -0.4257 88.0104 46.0809 70.7122 37.8857 10.8401 24.9335 -5.6806 -109.3544 11.6449 167.8942 -151.1635 54.1152 -165.5647 1.0633 -14.0432 -10.1586 -57.3329 47.8450 -148.6895 35.5896 -7.6502 -99.0305 -0.2772 -0.6726 -0.3419 -1.2692 10.5809 18.5329 -94.7812 -60.5599 131.9279 28.4724 -9.5579 73.9289 0.2177 0.4097 0.3597 -63.8252 15.4136 102.9311 -1.4967 31.4488 -3.3356 -1.9607 10.8819 0.7371 6.6791 -16.3745 4.6032 -44.9017 -17.5600 48.9191 -0.9082 42.0801 -17.1783 -5.5570 -5.2145 1.0474 1.5814 -7.3822 -8.3212 
0.0000 93.1000 0.0000 56.1301 -62.2193 -32.1301 -71.0157 -1.0777 88.0112 50.9314 69.0444 33.4161 10.5008 23.0706 -6.7135 -108.3243 11.3775 165.1044 -156.3705 55.5976 -158.2378 0.3784 -14.5502 -9.2927 -56.0750 41.1452 -151.6144 33.5445 -5.9989 -97.4420 -0.8402 -1.1771 0.3570 -1.7779 10.8704 19.7704 -112.9765 -56.8227 113.2528 23.9628 -8.5408 72.9094 0.7705 1.1373 0.6359 -57.6890 17.5857 96.2837 -2.0472 32.1921 -4.9555 -2.7072 10.0641 1.4023 5.8155 -14.9238 5.4700 -43.3384 -17.0466 56.9403 -1.0778 44.2431 -15.0107 -5.6236 1.3057 -0.0207 0.6022 -7.9087 -6.1063 
0.0000 93.1000 0.0000 62.8703 -51.4826 -21.0345 -71.0092 -0.2452 88.0086 63.0417 69.1413 24.5079 9.9486 22.9350 -8.5139 -108.2393 12.5995 162.4574 -163.2435 57.5092 -152.4884 0.8814 -15.0115 -11.4125 -58.1009 33.2660 -153.6572 28.7812 -4.1831 -95.8528 -0.5370 -0.4220 0.3271 -1.6292 11.0352 22.3766 -125.1314 -47.5666 103.7138 21.8263 -8.0259 71.1226 0.2057 0.5747 0.3072 -52.6452 18.9444 95.9036 -2.0214 36.1015 -2.1650 -3.0956 7.9706 0.7675 4.4871 -11.2338 0.6081 -41.4212 -14.3319 68.2076 0.0993 47.9039 -11.1107 -7.9209 3.7582 0.4371 -0.5709 -10.2248 -6.7503 
0.0000 93.1000 0.0000 64.5990 -44.0061 -17.1549 -70.9890 3.4524 88.0067 77.9734 70.6918 13.1980 8.7887 23.7319 -7.6554 -112.3650 15.5032 163.4634 -175.5401 60.0981 -143.3355 0.9904 -14.6912 -13.9003 -59.0623 29.1490 -154.6265 26.7212 -3.0587 -95.3654 -0.0594 2.8205 -0.8767 -0.7893 11.0208 20.4891 -133.9149 -40.3867 94.0392 19.2118 -8.5990 67.9472 -1.7696 -2.6246 -2.1890 -50.8097 18.8152 97.9414 -2.8886 39.2574 -1.7373 -2.3296 3.9855 -1.3170 6.0760 -13.9703 -5.8587 -37.9390 -11.1557 80.9707 1.9851 46.2526 3.8687 -6.5845 3.1439 1.6918 0.1497 -20.8742 -17.5683 
0.0000 93.1000 0.0000 65.3891 -36.9153 -15.0802 -71.0034 0.2718 87.9912 85.8653 71.8230 3.9639 4.3923 22.9879 -6.5196 -115.3401 18.8007 161.0614 175.9923 62.4860 -138.1279 -0.7049 -15.1320 -16.1734 -58.0939 26.9039 -154.6960 25.7314 -2.7965 -94.1928 0.6359 0.3876 0.1529 -2.1213 10.5949 23.4715 -134.8177 -27.4020 95.1415 14.5146 -7.9251 63.9595 0.1800 -0.3295 -0.2079 -47.9889 18.8817 100.2776 -2.5578 39.3081 -5.8394 -2.2202 -0.7394 0.0198 6.6871 -15.4075 -6.8966 -37.4404 -9.1325 91.9975 2.8432 38.0034 14.0023 -1.1636 -0.1339 0.0017 2.5112 -27.9173 -35.5357 
0.0000 93.1000 0.0000 62.9584 -30.8197 -14.9131 -71.0052 0.2128 87.9897 88.9236 72.1746 -1.8163 2.8974 22.8167 -4.9468 -122.3110 22.2720 155.2649 172.0508 65.8415 -142.1597 -0.6869 -15.3378 -18.2734 -59.3119 24.5605 -156.6393 24.0349 -1.0983 -92.3246 0.5524 0.2697 0.1722 -2.3391 9.8405 29.8122 -136.5041 -13.8199 97.8280 10.6267 -6.7451 60.2280 -0.0154 -0.2569 -0.2129 -42.8082 17.7681 102.6521 -3.1565 40.3087 -11.4793 -1.3429 -4.7108 -0.4762 5.9246 -14.6923 -2.5063 -34.8990 -11.2045 93.9335 2.1375 34.7787 17.9499 2.0472 -1.1570 -0.2952 2.2544 -23.0375 -37.9818 
0.0000 93.1000 0.0000 64.1114 -23.4602 -14.0930 -71.0074 0.1146 87.9915 87.1194 71.6569 -3.3030 2.8891 22.0771 -4.9296 -129.1855 25.7363 153.2554 168.0119 69.0208 -142.0017 -0.6874 -16.2271 -21.8306 -62.9588 21.4030 -155.7224 23.2577 -0.8979 -90.9915 0.0466 0.1655 0.1070 -2.4996 9.4848 34.1705 -140.8960 -4.7971 97.8225 6.6536 -5.0515 57.8410 -0.3102 -0.1327 -0.1815 -36.8700 14.4106 100.9559 -4.1102 44.1502 -13.1863 0.0694 -7.8675 -1.0418 4.7556 -13.0209 0.1749 -31.5477 -14.6292 92.2783 2.1542 40.0767 9.2079 2.0577 -4.6714 -0.1504 1.2826 -11.7735 -33.0774 
